# xmcd
#
# Track frame offsets:
#	150
#	106868
#	115703
#
# Disc length: 2313 seconds
#
# Revision: 1
# Processed by: cddbd v1.5.2PL0 Copyright (c) Steve Scherf et al.
# Submitted via: audiograbber 1.83.01
#
DISCID=19090703
DTITLE=Grateful Dead - 69-04-06 Avalon Ballroom, San Francisco Ca
DYEAR=1900
DGENRE=
TTITLE0=Turn On Your Lovelight
TTITLE1=Tuning
TTITLE2=Viola Lee Blues
EXTD=
EXTT0=
EXTT1=
EXTT2=
PLAYORDER=
